<svg width="32" height="26" viewBox="0 0 32 26" fill="none" xmlns="http://www.w3.org/2000/svg">
<path d="M22.8178 4.79904L20.8981 1.76587C20.4935 1.29423 19.9389 1 19.3173 1H12.6827C12.0611 1 11.5065 1.29423 11.1019 1.76587L9.18221 4.79904C8.77764 5.27139 8.25625 5.61538 7.63462 5.61538H3.30769C2.69565 5.61538 2.10868 5.85852 1.67591 6.29129C1.24313 6.72407 1 7.31104 1 7.92308V21.7692C1 22.3813 1.24313 22.9682 1.67591 23.401C2.10868 23.8338 2.69565 24.0769 3.30769 24.0769H28.6923C29.3043 24.0769 29.8913 23.8338 30.3241 23.401C30.7569 22.9682 31 22.3813 31 21.7692V7.92308C31 7.31104 30.7569 6.72407 30.3241 6.29129C29.8913 5.85852 29.3043 5.61538 28.6923 5.61538H24.4375C23.8137 5.61538 23.2224 5.27139 22.8178 4.79904Z" stroke="white" stroke-width="2" stroke-linecap="round" stroke-linejoin="round"/>
<path d="M15.9999 19.4613C19.1862 19.4613 21.7692 16.8783 21.7692 13.6921C21.7692 10.5058 19.1862 7.92285 15.9999 7.92285C12.8137 7.92285 10.2307 10.5058 10.2307 13.6921C10.2307 16.8783 12.8137 19.4613 15.9999 19.4613Z" stroke="white" stroke-width="2" stroke-miterlimit="10"/>
<path d="M6.48077 5.47118V3.88464H4.75V5.47118" stroke="white" stroke-width="2" stroke-linecap="round" stroke-linejoin="round"/>
</svg>
