<svg width="28" height="28" viewBox="0 0 28 28" fill="none" xmlns="http://www.w3.org/2000/svg">
<path d="M24.9375 18.0375C24.875 17.8125 25.0125 17.5 25.1438 17.275C25.1839 17.208 25.2277 17.1433 25.275 17.0812C26.3977 15.413 26.9982 13.4483 27 11.4375C27.0188 5.675 22.1563 1 16.1438 1C10.9 1 6.52505 4.56875 5.50005 9.30624C5.34671 10.0084 5.26918 10.725 5.2688 11.4437C5.2688 17.2125 9.94379 22.0125 15.9563 22.0125C16.9125 22.0125 18.2 21.725 18.9063 21.5312C19.6125 21.3375 20.3125 21.0812 20.4938 21.0125C20.6796 20.9424 20.8765 20.9064 21.075 20.9062C21.2917 20.9054 21.5063 20.9479 21.7063 21.0312L25.25 22.2875C25.3277 22.3204 25.4099 22.3414 25.4938 22.35C25.6264 22.35 25.7536 22.2973 25.8473 22.2035C25.9411 22.1098 25.9938 21.9826 25.9938 21.85C25.9894 21.7928 25.9789 21.7362 25.9625 21.6812L24.9375 18.0375Z" stroke="#D9D9D9" stroke-width="2" stroke-miterlimit="10" stroke-linecap="round"/>
<path d="M2.15379 12.5001C1.33406 13.9728 0.937515 15.6434 1.008 17.3274C1.07848 19.0113 1.61324 20.643 2.55316 22.042C2.69754 22.2601 2.77879 22.4289 2.75379 22.542C2.72879 22.6551 2.00816 26.4089 2.00816 26.4089C1.99083 26.4967 1.9974 26.5876 2.0272 26.672C2.05699 26.7565 2.10891 26.8313 2.17754 26.8889C2.2691 26.9618 2.38296 27.0011 2.50004 27.0001C2.5626 27.0003 2.62452 26.9875 2.68191 26.9626L6.19503 25.5876C6.43682 25.4923 6.70655 25.4968 6.94503 25.6001C8.12878 26.0614 9.43753 26.3501 10.7469 26.3501C12.5039 26.352 14.2302 25.8886 15.75 25.007" stroke="#D9D9D9" stroke-width="2" stroke-miterlimit="10" stroke-linecap="round"/>
</svg>
