<svg width="186" height="38" viewBox="0 0 186 38" fill="none" xmlns="http://www.w3.org/2000/svg">
<path d="M173.323 37.0961V18.3747H168.617V12.8771H173.323V4.3584H179.712V12.8771H185.407V18.3747H179.712V37.0961H173.323Z" fill="#00C5A1"/>
<path d="M151.893 37.2447C145.207 37.2447 140.7 32.1929 140.7 25.1104C140.7 18.028 145.207 13.0257 151.893 13.0257C154.072 13.0257 156.697 13.9172 158.48 16.1955V12.9762H164.869V37.0961H158.48V34.0749C156.697 36.4027 154.072 37.2447 151.893 37.2447ZM147.089 25.1104C147.089 29.3203 149.219 31.9452 152.636 31.9452C155.855 31.9452 158.48 29.0726 158.53 25.1104C158.48 21.1482 155.855 18.2756 152.636 18.2756C149.219 18.2756 147.089 20.9006 147.089 25.1104Z" fill="#00C5A1"/>
<path d="M125.616 37.1456C118.732 37.1456 113.928 32.1929 113.928 25.1104C113.928 17.9785 118.732 12.9762 125.616 12.9762C133.194 12.9762 135.621 19.1671 135.72 19.4643C137.206 22.6341 136.76 26.7448 136.76 27.3887H120.02C120.614 30.0632 123.091 31.8462 125.616 31.8462C128.885 31.8462 130.371 30.1622 130.817 29.3203L136.017 31.4004C134.878 34.1739 131.461 37.1456 125.616 37.1456ZM120.02 23.0798H130.866C130.322 20.3063 128.687 18.2756 125.616 18.2756C122.793 18.2756 120.614 20.1577 120.02 23.0798Z" fill="#00C5A1"/>
<path d="M109.199 19.0391V25.3267H93.0447V19.0391H109.199Z" fill="#00C5A1"/>
<path d="M77.0121 37.2447C75.8234 37.2447 72.6041 36.6999 70.3754 33.8768V37.1456H63.9863V1.28772H70.3754V16.2945C72.6041 13.3229 75.8234 12.9267 77.0616 12.9267C83.7478 12.9267 88.3043 17.9785 88.3043 25.1104C88.3043 32.1929 83.7478 37.2447 77.0121 37.2447ZM70.3754 25.2095C70.3754 29.1222 73.0003 32.0443 76.3187 32.0443C79.7361 32.0443 81.9153 29.4193 81.9153 25.2095C81.9153 20.9501 79.7361 18.3747 76.3187 18.3747C73.0003 18.3747 70.3754 21.3463 70.3754 25.2095Z" fill="#00C5A1"/>
<path d="M45.3374 37.2447C38.6512 37.2447 34.1442 32.1929 34.1442 25.1104C34.1442 18.028 38.6512 13.0257 45.3374 13.0257C47.5166 13.0257 50.1415 13.9172 51.9245 16.1955V12.9762H58.3136V37.0961H51.9245V34.0749C50.1415 36.4027 47.5166 37.2447 45.3374 37.2447ZM40.5332 25.1104C40.5332 29.3203 42.6629 31.9452 46.0803 31.9452C49.2996 31.9452 51.9245 29.0726 51.974 25.1104C51.9245 21.1482 49.2996 18.2756 46.0803 18.2756C42.6629 18.2756 40.5332 20.9006 40.5332 25.1104Z" fill="#00C5A1"/>
<path d="M28.9736 0V37.0465H22.5845V20.752H6.38904V37.0465H0V0H6.38904V15.2545H22.5845V0H28.9736Z" fill="#00C5A1"/>
</svg>
