<svg width="28" height="28" viewBox="0 0 28 28" fill="none" xmlns="http://www.w3.org/2000/svg">
<path d="M24 2.99976H4C2.34315 2.99976 1 4.3429 1 5.99976V23.9998C1 25.6566 2.34315 26.9998 4 26.9998H24C25.6569 26.9998 27 25.6566 27 23.9998V5.99976C27 4.3429 25.6569 2.99976 24 2.99976Z" stroke="#D9D9D9" stroke-width="2" stroke-linejoin="round"/>
<path d="M16.5 14C17.3284 14 18 13.3284 18 12.5C18 11.6716 17.3284 11 16.5 11C15.6716 11 15 11.6716 15 12.5C15 13.3284 15.6716 14 16.5 14Z" fill="#D9D9D9"/>
<path d="M21.5 14C22.3284 14 23 13.3284 23 12.5C23 11.6716 22.3284 11 21.5 11C20.6716 11 20 11.6716 20 12.5C20 13.3284 20.6716 14 21.5 14Z" fill="#D9D9D9"/>
<path d="M16.5 18.9998C17.3284 18.9998 18 18.3282 18 17.4998C18 16.6713 17.3284 15.9998 16.5 15.9998C15.6716 15.9998 15 16.6713 15 17.4998C15 18.3282 15.6716 18.9998 16.5 18.9998Z" fill="#D9D9D9"/>
<path d="M21.5 18.9998C22.3284 18.9998 23 18.3282 23 17.4998C23 16.6713 22.3284 15.9998 21.5 15.9998C20.6716 15.9998 20 16.6713 20 17.4998C20 18.3282 20.6716 18.9998 21.5 18.9998Z" fill="#D9D9D9"/>
<path d="M6.5 18.9998C7.32843 18.9998 8 18.3282 8 17.4998C8 16.6713 7.32843 15.9998 6.5 15.9998C5.67157 15.9998 5 16.6713 5 17.4998C5 18.3282 5.67157 18.9998 6.5 18.9998Z" fill="#D9D9D9"/>
<path d="M11.5 18.9998C12.3284 18.9998 13 18.3282 13 17.4998C13 16.6713 12.3284 15.9998 11.5 15.9998C10.6716 15.9998 10 16.6713 10 17.4998C10 18.3282 10.6716 18.9998 11.5 18.9998Z" fill="#D9D9D9"/>
<path d="M6.5 24C7.32843 24 8 23.3284 8 22.5C8 21.6716 7.32843 21 6.5 21C5.67157 21 5 21.6716 5 22.5C5 23.3284 5.67157 24 6.5 24Z" fill="#D9D9D9"/>
<path d="M11.5 24C12.3284 24 13 23.3284 13 22.5C13 21.6716 12.3284 21 11.5 21C10.6716 21 10 21.6716 10 22.5C10 23.3284 10.6716 24 11.5 24Z" fill="#D9D9D9"/>
<path d="M16.5 24C17.3284 24 18 23.3284 18 22.5C18 21.6716 17.3284 21 16.5 21C15.6716 21 15 21.6716 15 22.5C15 23.3284 15.6716 24 16.5 24Z" fill="#D9D9D9"/>
<path d="M6 1V3M22 1V3" stroke="#D9D9D9" stroke-width="2" stroke-linecap="round" stroke-linejoin="round"/>
<path d="M27 8H1" stroke="#D9D9D9" stroke-width="2" stroke-linejoin="round"/>
</svg>
